<svg version="1.2" xmlns="http://www.w3.org/2000/svg" viewBox="0 0 16 16" width="16" height="16">
  <defs>
    <clipPath clipPathUnits="userSpaceOnUse" id="cp1">
      <path d="m-279-100h320v568h-320z" />
    </clipPath>
  </defs>
  <style>.a{fill:#fff}</style>
  <g clip-path="url(#cp1)">
    <path class="a" d="m3.9 0.9l11.3 11.3c0.8 0.8 0.8 2.1 0 2.9-0.8 0.7-2.1 0.7-2.8 0l-11.3-11.3c-0.8-0.8-0.8-2.1 0-2.9 0.7-0.8 2-0.8 2.8 0z" />
    <path class="a" d="m15.2 3.8l-11.3 11.3c-0.8 0.7-2.1 0.7-2.8 0-0.8-0.8-0.8-2.1 0-2.9l11.3-11.3c0.8-0.8 2-0.8 2.8 0 0.8 0.8 0.8 2.1 0 2.9z" />
  </g>
</svg>